<svg width="93" height="100" viewBox="0 0 93 100" fill="none" xmlns="http://www.w3.org/2000/svg">
<path d="M88.8013 0.892578C88.3645 0.892578 87.9162 0.978516 87.4679 1.17494L21.2076 29.608H2.35491C1.3433 29.608 0.515625 30.5165 0.515625 31.6459V68.3535C0.515625 69.483 1.3433 70.3915 2.35491 70.3915H14.0344C13.609 71.8156 13.3906 73.3256 13.3906 74.8602C13.3906 82.9506 19.5752 89.531 27.1853 89.531C33.5538 89.531 38.9222 84.9149 40.5086 78.6783L87.4794 98.8368C87.9277 99.0209 88.376 99.1191 88.8128 99.1191C90.7556 99.1191 92.4914 97.3758 92.4914 95.0433V4.96847C92.4799 2.63588 90.7556 0.892578 88.8013 0.892578ZM27.1853 80.7285C24.139 80.7285 21.6674 78.1013 21.6674 74.8602C21.6674 73.4852 22.1157 72.1716 22.9319 71.1281L32.6916 75.3145C32.4617 78.3345 30.0821 80.7285 27.1853 80.7285Z" fill="url(#paint0_linear_2477_1456)"/>
<defs>
<linearGradient id="paint0_linear_2477_1456" x1="47" y1="154" x2="67" y2="-9" gradientUnits="userSpaceOnUse">
<stop stop-color="#F7D10A"/>
<stop offset="0.0001" stop-color="#FDEFA3" stop-opacity="0"/>
<stop offset="1" stop-color="#F7D10A"/>
</linearGradient>
</defs>
</svg>
