<svg width="118" height="112" viewBox="0 0 118 112" fill="none" xmlns="http://www.w3.org/2000/svg">
<path d="M93.9974 12.5283V0.5H23.9974V12.5283H0.664062V29.6667C0.664062 44.3958 11.6891 56.4883 25.8874 58.4367C27.9219 64.403 31.5306 69.7089 36.3319 73.7934C41.1332 77.878 46.9488 80.5897 53.1641 81.6417V88C53.1641 91.0942 51.9349 94.0617 49.747 96.2496C47.5591 98.4375 44.5916 99.6667 41.4974 99.6667H35.6641V111.333H82.3307V99.6667H76.4974C73.4032 99.6667 70.4357 98.4375 68.2478 96.2496C66.0599 94.0617 64.8307 91.0942 64.8307 88V81.6417C71.0455 80.5885 76.8606 77.8764 81.6617 73.792C86.4628 69.7076 90.0718 64.4024 92.1074 58.4367C106.306 56.4883 117.331 44.3958 117.331 29.6667V12.5283H93.9974ZM12.3307 29.6667V24.195H23.9974V46.1633C20.5878 44.9542 17.6359 42.7195 15.547 39.7658C13.4582 36.8121 12.3346 33.2843 12.3307 29.6667ZM105.664 29.6667C105.659 33.2855 104.535 36.8144 102.447 39.7697C100.358 42.725 97.407 44.9623 93.9974 46.175V24.1833H105.664V29.6667Z" fill="url(#paint0_linear_2477_1468)" fill-opacity="0.8"/>
<defs>
<linearGradient id="paint0_linear_2477_1468" x1="59" y1="16" x2="59" y2="156" gradientUnits="userSpaceOnUse">
<stop stop-color="#F7D10A"/>
<stop offset="1" stop-color="#F7DE59" stop-opacity="0"/>
</linearGradient>
</defs>
</svg>
