<svg width="94" height="118" viewBox="0 0 94 118" fill="none" xmlns="http://www.w3.org/2000/svg">
<path d="M47.0026 13.126L12.0026 26.251V47.3327C12.0034 54.831 13.6069 62.2425 16.7055 69.0706C19.8042 75.8987 24.3264 81.9856 29.9693 86.9235L47.0026 101.828V13.126ZM4.12177 16.7427L47.0026 0.666016L89.8834 16.7485C90.9951 17.1652 91.9532 17.9112 92.6297 18.8869C93.3061 19.8625 93.6688 21.0213 93.6693 22.2085V47.3327C93.6693 65.8652 85.6659 83.4993 71.7184 95.7085L47.0026 117.333L22.2868 95.7085C15.3916 89.6753 9.86581 82.2377 6.07997 73.8944C2.29413 65.551 0.335686 56.4948 0.335938 47.3327V22.2085C0.336383 21.0213 0.699068 19.8625 1.37555 18.8869C2.05203 17.9112 3.01009 17.1652 4.12177 16.7485V16.7427Z" fill="url(#paint0_linear_2477_1480)"/>
<defs>
<linearGradient id="paint0_linear_2477_1480" x1="47" y1="-11" x2="47" y2="143" gradientUnits="userSpaceOnUse">
<stop offset="0.0731707" stop-color="#F7D10A"/>
<stop offset="1" stop-color="#EFAE08" stop-opacity="0"/>
</linearGradient>
</defs>
</svg>
