<svg width="42" height="35" viewBox="0 0 42 35" fill="none" xmlns="http://www.w3.org/2000/svg">
<path d="M35.5548 3.19492C32.8318 1.85573 29.9582 0.900753 27.0058 0.353919C26.979 0.348559 26.9513 0.352396 26.9266 0.364885C26.902 0.377374 26.8816 0.397879 26.8685 0.423482C26.4992 1.12717 26.0902 2.04498 25.8039 2.76629C22.5757 2.24842 19.3639 2.24842 16.202 2.76629C15.9157 2.02886 15.4919 1.12717 15.1211 0.423482C15.1073 0.398462 15.0869 0.378459 15.0624 0.366084C15.0379 0.353708 15.0104 0.349534 14.9837 0.354107C12.031 0.899669 9.15722 1.85456 6.43458 3.19473C6.41129 3.2054 6.39166 3.22354 6.37841 3.24667C0.933457 11.9624 -0.558243 20.4639 0.173607 28.8599C0.175676 28.8805 0.181575 28.9004 0.190954 28.9184C0.200332 28.9365 0.213 28.9524 0.228207 28.9651C3.82061 31.7919 7.30048 33.5079 10.7158 34.6452C10.7423 34.6537 10.7707 34.6533 10.797 34.6441C10.8234 34.6348 10.8464 34.6172 10.8631 34.5935C11.6709 33.4115 12.3911 32.165 13.0086 30.8544C13.0171 30.8364 13.022 30.8167 13.0228 30.7966C13.0237 30.7765 13.0206 30.7565 13.0138 30.7378C13.0069 30.719 12.9964 30.7021 12.9829 30.688C12.9695 30.674 12.9535 30.6631 12.9358 30.6562C11.7934 30.1919 10.7058 29.6259 9.65948 28.9831C9.6404 28.9711 9.62437 28.9542 9.61281 28.934C9.60126 28.9138 9.59452 28.8909 9.59321 28.8672C9.59189 28.8435 9.59604 28.8199 9.60528 28.7983C9.61452 28.7768 9.62856 28.758 9.64618 28.7437C9.86633 28.5669 10.0867 28.3831 10.2968 28.1973C10.3155 28.1808 10.3381 28.1702 10.3621 28.1667C10.3861 28.1632 10.4105 28.167 10.4326 28.1776C17.3063 31.54 24.7476 31.54 31.5401 28.1776C31.5622 28.1663 31.5869 28.162 31.6112 28.1652C31.6355 28.1683 31.6585 28.1788 31.6775 28.1954C31.8878 28.381 32.108 28.5669 32.3299 28.7437C32.3475 28.7579 32.3617 28.7765 32.371 28.7979C32.3804 28.8194 32.3847 28.843 32.3835 28.8666C32.3824 28.8902 32.3758 28.9132 32.3645 28.9335C32.3531 28.9538 32.3372 28.9707 32.3183 28.9829C31.2716 29.6379 30.1751 30.1971 29.0406 30.6543C29.0229 30.6615 29.0069 30.6726 28.9936 30.6869C28.9803 30.7012 28.9699 30.7184 28.9632 30.7373C28.9565 30.7561 28.9535 30.7763 28.9546 30.7965C28.9557 30.8167 28.9607 30.8364 28.9693 30.8544C29.6 32.1631 30.3202 33.4096 31.1131 34.5916C31.1293 34.616 31.1522 34.6343 31.1787 34.6439C31.2051 34.6535 31.2337 34.654 31.2604 34.6452C34.6922 33.5077 38.1721 31.7917 41.7645 28.9651C41.7799 28.953 41.7928 28.9375 41.8023 28.9197C41.8117 28.9018 41.8175 28.882 41.8192 28.8616C42.6949 19.1547 40.3524 10.723 35.6094 3.24836C35.5977 3.22407 35.5783 3.20524 35.5548 3.19492ZM14.035 23.7475C11.9656 23.7475 10.2604 21.7119 10.2604 19.2119C10.2604 16.7122 11.9326 14.6765 14.0352 14.6765C16.1541 14.6765 17.8427 16.73 17.8096 19.2121C17.8096 21.7119 16.1375 23.7475 14.035 23.7475ZM27.9909 23.7475C25.9215 23.7475 24.2163 21.7119 24.2163 19.2119C24.2163 16.7122 25.8883 14.6765 27.9909 14.6765C30.1098 14.6765 31.7984 16.73 31.7653 19.2121C31.7653 21.7119 30.1098 23.7475 27.9909 23.7475Z" fill="#F7FFEC"/>
</svg>
