<svg width="42" height="40" viewBox="0 0 42 40" fill="none" xmlns="http://www.w3.org/2000/svg">
<path d="M12.3026 0.140028C10.0682 0.240361 8.54242 0.580028 7.20839 1.07903C5.82799 1.59153 4.65777 2.27903 3.49349 3.39186C2.32939 4.50469 1.61224 5.61986 1.07814 6.93686C0.561193 8.20986 0.210843 9.66436 0.112143 11.7935C0.0134428 13.9227 -0.00843222 14.6072 0.00259278 20.0385C0.0134428 25.4695 0.0386428 26.1504 0.146968 28.284C0.253718 30.4115 0.608968 31.8644 1.13309 33.1352C1.67209 34.45 2.39309 35.564 3.56209 36.6732C4.73092 37.7824 5.90097 38.4637 7.28697 38.9732C8.62257 39.4649 10.1501 39.8 12.3854 39.8932C14.6207 39.9865 15.3401 40.0082 21.0413 39.9977C26.7424 39.9874 27.4603 39.9632 29.6999 39.862C31.9399 39.7609 33.4572 39.42 34.7921 38.9232C36.1726 38.4089 37.3432 37.7232 38.507 36.6097C39.6707 35.496 40.3873 34.38 40.9211 33.0624C41.4386 31.7904 41.7901 30.3357 41.8871 28.2084C41.9851 26.0735 42.0082 25.392 41.9973 19.9617C41.9863 14.5312 41.9606 13.8504 41.8544 11.7175C41.7481 9.58469 41.3924 8.13636 40.8686 6.86469C40.3289 5.54986 39.6086 4.43669 38.4403 3.32669C37.2718 2.21669 36.099 1.53469 34.7161 1.02753C33.3795 0.535028 31.8529 0.199528 29.6177 0.107528C27.3824 0.015528 26.663 -0.00830535 20.9597 0.00236132C15.2565 0.0126946 14.5425 0.036028 12.3026 0.140028ZM12.548 36.2952C10.5005 36.2104 9.38872 35.8864 8.64777 35.6152C7.66672 35.2552 6.96777 34.82 6.22944 34.1235C5.49094 33.4272 5.03752 32.7592 4.65444 31.8269C4.36674 31.1212 4.02024 30.0635 3.92452 28.1135C3.82039 26.006 3.79852 25.3732 3.78627 20.0335C3.77402 14.694 3.79554 14.0619 3.89249 11.9535C3.97999 10.0052 4.32229 8.94519 4.60649 8.23986C4.98449 7.30436 5.43984 6.63986 6.17274 5.93719C6.90564 5.23436 7.60494 4.80153 8.58477 4.43669C9.32502 4.16153 10.4354 3.83436 12.482 3.74153C14.6966 3.64153 15.3602 3.62153 20.966 3.60986C26.5718 3.59819 27.2371 3.61819 29.4526 3.71119C31.4984 3.79586 32.6119 4.11869 33.3516 4.39119C34.333 4.75119 35.0316 5.18353 35.7694 5.88286C36.5074 6.58186 36.9622 7.24553 37.3453 8.18069C37.6346 8.88353 37.9783 9.94069 38.0749 11.8912C38.1802 14.0004 38.2042 14.6329 38.2142 19.9712C38.2243 25.3095 38.2046 25.9435 38.1074 28.0512C38.0182 30.0012 37.6787 31.0604 37.3934 31.7669C37.0154 32.7009 36.5599 33.3669 35.8265 34.0692C35.0932 34.7717 34.3948 35.2044 33.4145 35.5692C32.6753 35.844 31.5635 36.172 29.5186 36.2649C27.3038 36.364 26.6402 36.3849 21.0323 36.3965C15.4245 36.4082 14.7626 36.3865 12.548 36.2952ZM29.6677 9.31069C29.6685 9.78541 29.8172 10.2492 30.0948 10.6435C30.3725 11.0377 30.7666 11.3447 31.2275 11.5256C31.6883 11.7065 32.1952 11.7532 32.6838 11.6597C33.1726 11.5663 33.6212 11.3369 33.973 11.0006C34.3248 10.6643 34.5639 10.2361 34.6602 9.77037C34.7565 9.3046 34.7056 8.82208 34.514 8.38386C34.3223 7.94564 33.9985 7.5714 33.5835 7.30846C33.1685 7.04552 32.6809 6.90571 32.1825 6.90669C31.5143 6.90802 30.874 7.16201 30.4025 7.61282C29.9309 8.06363 29.6666 8.67435 29.6677 9.31069ZM10.2173 20.02C10.2291 25.692 15.0659 30.2795 21.0201 30.2689C26.9746 30.258 31.7948 25.652 31.7836 19.98C31.7723 14.308 26.9344 9.71919 20.9791 9.73036C15.0239 9.74153 10.2061 14.3487 10.2173 20.02ZM14 20.0129C13.9972 18.6943 14.4051 17.4046 15.172 16.3069C15.9389 15.2091 17.0303 14.3526 18.3084 13.8456C19.5864 13.3386 20.9936 13.2039 22.352 13.4586C23.7104 13.7132 24.959 14.3458 25.9399 15.2763C26.9208 16.2068 27.5899 17.3934 27.8627 18.6861C28.1355 19.9788 27.9997 21.3195 27.4724 22.5386C26.9452 23.7578 26.0502 24.8007 24.9006 25.5354C23.751 26.2702 22.3984 26.6637 21.014 26.6664C20.0947 26.6682 19.184 26.4976 18.334 26.1642C17.4839 25.8308 16.7112 25.3412 16.0599 24.7233C15.4085 24.1055 14.8914 23.3715 14.5379 22.5632C14.1845 21.755 14.0017 20.8884 14 20.0129Z" fill="white"/>
</svg>
