<svg width="47" height="50" viewBox="0 0 47 50" fill="none" xmlns="http://www.w3.org/2000/svg">
<path d="M1 3.57422C1 2.13176 2.13019 1 3.43605 1H42.8602C44.1696 1 45.2963 2.11585 45.2963 3.57422V46.4258C45.2963 47.8682 44.1661 49 42.8602 49H3.43605C2.12672 49 1 47.8842 1 46.4258V3.57422Z" stroke="#E0E3E6" stroke-width="2"/>
<path d="M14.7305 41.6914V19.1914H7.80411V41.6914H14.7305ZM11.2763 16.1055C13.6816 16.1055 15.1826 14.3867 15.1826 12.2187C15.1464 10.0117 13.6816 8.33203 11.3306 8.33203C8.96152 8.33203 7.40625 10.0117 7.40625 12.2383C7.40625 14.3867 8.90726 16.125 11.2402 16.125H11.2763V16.1055ZM18.5644 41.6914H25.4907V29.1523C25.4907 28.4688 25.545 27.7852 25.7258 27.3164C26.2141 25.9883 27.3534 24.582 29.2704 24.582C31.7841 24.582 32.7788 26.6523 32.7788 29.6602V41.7109H39.7232V28.8203C39.7232 21.9062 36.3053 18.6641 31.7661 18.6641C30.494 18.611 29.233 18.9386 28.1225 19.6107C27.0119 20.2828 26.0949 21.2732 25.4727 22.4727H25.5088V19.1914H18.5644C18.6548 21.3008 18.5644 41.6914 18.5644 41.6914Z" fill="#E6E9EB"/>
</svg>
