<svg width="32" height="32" viewBox="0 0 32 32" fill="none" xmlns="http://www.w3.org/2000/svg">
<path d="M29.9967 3.35742H12.2824C12.1252 3.35742 11.9967 3.48599 11.9967 3.64314V5.64314C11.9967 5.80028 12.1252 5.92885 12.2824 5.92885H29.9967C30.1538 5.92885 30.2824 5.80028 30.2824 5.64314V3.64314C30.2824 3.48599 30.1538 3.35742 29.9967 3.35742ZM29.9967 18.5003H12.2824C12.1252 18.5003 11.9967 18.6289 11.9967 18.786V20.786C11.9967 20.9431 12.1252 21.0717 12.2824 21.0717H29.9967C30.1538 21.0717 30.2824 20.9431 30.2824 20.786V18.786C30.2824 18.6289 30.1538 18.5003 29.9967 18.5003ZM29.9967 26.0717H1.99665C1.83951 26.0717 1.71094 26.2003 1.71094 26.3574V28.3574C1.71094 28.5146 1.83951 28.6431 1.99665 28.6431H29.9967C30.1538 28.6431 30.2824 28.5146 30.2824 28.3574V26.3574C30.2824 26.2003 30.1538 26.0717 29.9967 26.0717ZM29.9967 10.9289H1.99665C1.83951 10.9289 1.71094 11.0574 1.71094 11.2146V13.2146C1.71094 13.3717 1.83951 13.5003 1.99665 13.5003H29.9967C30.1538 13.5003 30.2824 13.3717 30.2824 13.2146V11.2146C30.2824 11.0574 30.1538 10.9289 29.9967 10.9289Z" fill="white"/>
</svg>
