<svg width="364" height="173" viewBox="0 0 364 173" fill="none" xmlns="http://www.w3.org/2000/svg">
<path d="M140.127 98.4946C136.396 98.4946 133.315 97.3164 130.883 94.9596C128.45 92.6028 127.234 89.696 127.234 86.2397C127.234 82.7604 128.45 79.8539 130.883 77.5194C133.315 75.1626 136.396 73.9844 140.127 73.9844C142.37 73.9844 144.436 74.4895 146.326 75.4995C148.238 76.4871 149.726 77.8336 150.788 79.5396L146.573 81.8626C145.959 80.8077 145.086 79.9884 143.952 79.4048C142.819 78.799 141.544 78.4959 140.127 78.4959C137.719 78.4959 135.77 79.2142 134.283 80.6506C132.819 82.087 132.087 83.9501 132.087 86.2397C132.087 88.5066 132.819 90.3582 134.283 91.7949C135.77 93.2313 137.719 93.9497 140.127 93.9497C141.544 93.9497 142.819 93.6577 143.952 93.0742C145.109 92.468 145.983 91.649 146.573 90.6164L150.788 92.9394C149.726 94.6454 148.25 96.0034 146.361 97.0133C144.472 98.001 142.394 98.4946 140.127 98.4946Z" fill="url(#paint0_linear_4305_10968)"/>
<path d="M168.767 95.9367C166.949 97.6427 164.73 98.4955 162.108 98.4955C159.488 98.4955 157.268 97.6427 155.45 95.9367C153.655 94.2087 152.758 92.0986 152.758 89.6073C152.758 87.1157 153.655 85.0171 155.45 83.3114C157.268 81.5831 159.488 80.7188 162.108 80.7188C164.73 80.7188 166.949 81.5831 168.767 83.3114C170.586 85.0171 171.495 87.1157 171.495 89.6073C171.495 92.0986 170.586 94.2087 168.767 95.9367ZM158.673 92.9402C159.594 93.8157 160.739 94.2533 162.108 94.2533C163.478 94.2533 164.623 93.8157 165.544 92.9402C166.465 92.0651 166.926 90.9538 166.926 89.6073C166.926 88.2605 166.465 87.1495 165.544 86.274C164.623 85.3989 163.478 84.961 162.108 84.961C160.739 84.961 159.594 85.3989 158.673 86.274C157.776 87.1495 157.327 88.2605 157.327 89.6073C157.327 90.9538 157.776 92.0651 158.673 92.9402Z" fill="url(#paint1_linear_4305_10968)"/>
<path d="M176.978 79.1696C176.222 79.1696 175.561 78.9115 174.994 78.3952C174.451 77.8566 174.18 77.2281 174.18 76.5097C174.18 75.7914 174.451 75.1629 174.994 74.6243C175.561 74.0857 176.222 73.8164 176.978 73.8164C177.757 73.8164 178.418 74.0857 178.961 74.6243C179.528 75.1629 179.811 75.7914 179.811 76.5097C179.811 77.2281 179.528 77.8566 178.961 78.3952C178.418 78.9115 177.757 79.1696 176.978 79.1696ZM174.711 98.0236V81.1895H179.28V98.0236H174.711Z" fill="url(#paint2_linear_4305_10968)"/>
<path d="M193.308 80.7188C195.244 80.7188 196.838 81.3361 198.09 82.5707C199.365 83.805 200.002 85.5111 200.002 87.6881V98.0242H195.433V88.2267C195.433 87.1045 195.114 86.2517 194.477 85.6682C193.839 85.062 192.989 84.7589 191.926 84.7589C190.746 84.7589 189.801 85.1069 189.093 85.8026C188.385 86.4987 188.03 87.5421 188.03 88.9339V98.0242H183.461V81.1901H188.03V83.0755C189.14 81.5043 190.899 80.7188 193.308 80.7188Z" fill="url(#paint3_linear_4305_10968)"/>
<path d="M218.923 78.9013H209.005V84.49H218.64V88.9343H209.005V98.0246H204.117V74.457H218.923V78.9013Z" fill="url(#paint4_linear_4305_10968)"/>
<path d="M222.273 98.0228V73.4453H226.843V98.0228H222.273Z" fill="url(#paint5_linear_4305_10968)"/>
<path d="M242.714 81.1914H247.283V98.0255H242.714V96.14C241.604 97.7112 239.845 98.4968 237.436 98.4968C235.5 98.4968 233.894 97.8795 232.619 96.6452C231.368 95.4105 230.742 93.7048 230.742 91.5275V81.1914H235.311V90.9889C235.311 92.111 235.63 92.9753 236.268 93.5815C236.905 94.1651 237.755 94.4567 238.818 94.4567C239.999 94.4567 240.943 94.109 241.651 93.4129C242.36 92.7172 242.714 91.6734 242.714 90.282V81.1914Z" fill="url(#paint6_linear_4305_10968)"/>
<path d="M255.329 91.3917C255.943 93.5015 257.607 94.5564 260.323 94.5564C262.07 94.5564 263.392 93.9951 264.29 92.873L267.973 94.8933C266.226 97.2946 263.652 98.4955 260.252 98.4955C257.324 98.4955 254.975 97.6538 253.203 95.9705C251.432 94.2871 250.547 92.1661 250.547 89.6073C250.547 87.0708 251.421 84.961 253.168 83.2776C254.915 81.5719 257.159 80.7188 259.898 80.7188C262.495 80.7188 264.632 81.5719 266.309 83.2776C268.009 84.9836 268.859 87.0934 268.859 89.6073C268.859 90.1682 268.8 90.7632 268.682 91.3917H255.329ZM255.258 88.025H264.29C264.03 86.8802 263.487 86.0273 262.661 85.4661C261.858 84.9049 260.937 84.6244 259.898 84.6244C258.67 84.6244 257.654 84.9275 256.852 85.5334C256.049 86.1169 255.517 86.9474 255.258 88.025Z" fill="url(#paint7_linear_4305_10968)"/>
<path d="M281.894 80.7188C283.83 80.7188 285.424 81.3361 286.675 82.5707C287.951 83.805 288.588 85.5111 288.588 87.6881V98.0242H284.019V88.2267C284.019 87.1045 283.7 86.2517 283.062 85.6682C282.425 85.062 281.575 84.7589 280.512 84.7589C279.331 84.7589 278.387 85.1069 277.679 85.8026C276.97 86.4987 276.616 87.5421 276.616 88.9339V98.0242H272.047V81.1901H276.616V83.0755C277.726 81.5043 279.485 80.7188 281.894 80.7188Z" fill="url(#paint8_linear_4305_10968)"/>
<path d="M300.921 98.4955C298.253 98.4955 296.022 97.6427 294.227 95.9367C292.456 94.231 291.57 92.1212 291.57 89.6073C291.57 87.0934 292.456 84.9836 294.227 83.2776C296.022 81.5719 298.253 80.7188 300.921 80.7188C302.645 80.7188 304.215 81.1117 305.632 81.8973C307.048 82.6829 308.123 83.7378 308.855 85.062L304.923 87.2505C304.569 86.5548 304.026 86.0047 303.294 85.6006C302.586 85.1968 301.783 84.9948 300.886 84.9948C299.516 84.9948 298.383 85.4323 297.485 86.3078C296.588 87.1606 296.14 88.2605 296.14 89.6073C296.14 90.9315 296.588 92.0313 297.485 92.9068C298.383 93.7596 299.516 94.1861 300.886 94.1861C301.806 94.1861 302.621 93.9951 303.33 93.6137C304.061 93.2095 304.605 92.6598 304.959 91.9641L308.926 94.1188C308.147 95.443 307.048 96.5091 305.632 97.3173C304.215 98.1029 302.645 98.4955 300.921 98.4955Z" fill="url(#paint9_linear_4305_10968)"/>
<path d="M314.922 91.3917C315.536 93.5015 317.201 94.5564 319.917 94.5564C321.664 94.5564 322.986 93.9951 323.883 92.873L327.567 94.8933C325.82 97.2946 323.246 98.4955 319.846 98.4955C316.918 98.4955 314.568 97.6538 312.797 95.9705C311.026 94.2871 310.141 92.1661 310.141 89.6073C310.141 87.0708 311.014 84.961 312.762 83.2776C314.509 81.5719 316.752 80.7188 319.492 80.7188C322.089 80.7188 324.226 81.5719 325.902 83.2776C327.603 84.9836 328.453 87.0934 328.453 89.6073C328.453 90.1682 328.394 90.7632 328.276 91.3917H314.922ZM314.852 88.025H323.883C323.624 86.8802 323.081 86.0273 322.254 85.4661C321.451 84.9049 320.531 84.6244 319.492 84.6244C318.264 84.6244 317.248 84.9275 316.446 85.5334C315.643 86.1169 315.111 86.9474 314.852 88.025Z" fill="url(#paint10_linear_4305_10968)"/>
<mask id="mask0_4305_10968" style="mask-type:luminance" maskUnits="userSpaceOnUse" x="35" y="45" width="82" height="83">
<path d="M71.9536 97.7616C71.9984 95.423 73.8682 93.4815 76.3163 93.2287H92.9437C97.5388 92.4567 101.02 88.8598 101.445 84.4456H71.0977C66.735 84.8879 63.2574 88.106 62.6798 92.237C62.6763 93.9447 62.6727 98.9658 62.672 105.226C62.672 105.235 62.672 105.244 62.672 105.253C62.6727 108.024 62.6763 111.069 62.6798 114.392C62.6763 114.39 62.6738 114.388 62.6709 114.386C52.303 108.956 45.2785 98.4704 45.2785 86.4284C45.2785 68.805 60.317 54.5203 78.87 54.5203C88.2814 54.5203 96.7877 58.1963 102.885 64.1195H71.9917C66.0184 64.4749 61.3368 69.1301 61.2348 74.8137C61.2601 77.3158 61.2601 79.949 61.2348 82.7109C62.3524 77.7882 66.5484 74.0295 71.7862 73.2554C85.8237 73.2307 97.5925 73.2175 107.092 73.2175C107.817 73.1118 108.524 72.9371 109.2 72.6982C111.405 71.9231 113.303 70.4728 114.574 68.5485C115.259 67.5099 115.735 66.3762 115.992 65.2031C115.759 64.8382 115.522 64.4763 115.279 64.1188C107.562 52.7816 94.1391 45.2773 78.8693 45.2773C54.943 45.2773 35.5469 63.7012 35.5469 86.4284C35.5469 101.613 44.2061 114.878 57.0904 122.008H57.0922C58.8749 122.995 60.7382 123.864 62.6709 124.605C62.6709 124.601 62.6709 124.599 62.6709 124.595C65.665 125.739 68.7782 126.561 71.9529 127.049V97.7609L71.9536 97.7616ZM79.1871 127.576C95.2304 127.467 109.202 119.074 116.594 106.675C115.186 103.529 112.82 100.829 109.78 98.9411C104.696 110.257 92.9274 118.212 79.1871 118.333V127.577V127.576Z" fill="white"/>
</mask>
<g mask="url(#mask0_4305_10968)">
<path d="M116.592 45.2773H35.5469V127.576H116.592V45.2773Z" fill="url(#paint11_linear_4305_10968)"/>
</g>
<defs>
<linearGradient id="paint0_linear_4305_10968" x1="167.77" y1="99.0643" x2="170.08" y2="61.9149" gradientUnits="userSpaceOnUse">
<stop stop-color="#0A81EE"/>
<stop offset="1" stop-color="#22F2F3"/>
</linearGradient>
<linearGradient id="paint1_linear_4305_10968" x1="167.767" y1="99.0652" x2="170.076" y2="61.9158" gradientUnits="userSpaceOnUse">
<stop stop-color="#0A81EE"/>
<stop offset="1" stop-color="#22F2F3"/>
</linearGradient>
<linearGradient id="paint2_linear_4305_10968" x1="167.769" y1="99.0646" x2="170.078" y2="61.9152" gradientUnits="userSpaceOnUse">
<stop stop-color="#0A81EE"/>
<stop offset="1" stop-color="#22F2F3"/>
</linearGradient>
<linearGradient id="paint3_linear_4305_10968" x1="167.768" y1="99.0652" x2="170.077" y2="61.9158" gradientUnits="userSpaceOnUse">
<stop stop-color="#0A81EE"/>
<stop offset="1" stop-color="#22F2F3"/>
</linearGradient>
<linearGradient id="paint4_linear_4305_10968" x1="167.769" y1="99.0656" x2="170.079" y2="61.9162" gradientUnits="userSpaceOnUse">
<stop stop-color="#0A81EE"/>
<stop offset="1" stop-color="#22F2F3"/>
</linearGradient>
<linearGradient id="paint5_linear_4305_10968" x1="167.771" y1="99.0638" x2="170.08" y2="61.9144" gradientUnits="userSpaceOnUse">
<stop stop-color="#0A81EE"/>
<stop offset="1" stop-color="#22F2F3"/>
</linearGradient>
<linearGradient id="paint6_linear_4305_10968" x1="167.772" y1="99.0665" x2="170.081" y2="61.9171" gradientUnits="userSpaceOnUse">
<stop stop-color="#0A81EE"/>
<stop offset="1" stop-color="#22F2F3"/>
</linearGradient>
<linearGradient id="paint7_linear_4305_10968" x1="167.772" y1="99.0652" x2="170.081" y2="61.9158" gradientUnits="userSpaceOnUse">
<stop stop-color="#0A81EE"/>
<stop offset="1" stop-color="#22F2F3"/>
</linearGradient>
<linearGradient id="paint8_linear_4305_10968" x1="167.77" y1="99.0652" x2="170.08" y2="61.9158" gradientUnits="userSpaceOnUse">
<stop stop-color="#0A81EE"/>
<stop offset="1" stop-color="#22F2F3"/>
</linearGradient>
<linearGradient id="paint9_linear_4305_10968" x1="167.772" y1="99.0652" x2="170.081" y2="61.9158" gradientUnits="userSpaceOnUse">
<stop stop-color="#0A81EE"/>
<stop offset="1" stop-color="#22F2F3"/>
</linearGradient>
<linearGradient id="paint10_linear_4305_10968" x1="167.768" y1="99.0652" x2="170.077" y2="61.9158" gradientUnits="userSpaceOnUse">
<stop stop-color="#0A81EE"/>
<stop offset="1" stop-color="#22F2F3"/>
</linearGradient>
<linearGradient id="paint11_linear_4305_10968" x1="51.8736" y1="129.448" x2="101.298" y2="31.9847" gradientUnits="userSpaceOnUse">
<stop stop-color="#0A81EE"/>
<stop offset="1" stop-color="#22F2F3"/>
</linearGradient>
</defs>
</svg>
