<svg width="39" height="40" viewBox="0 0 39 40" fill="none" xmlns="http://www.w3.org/2000/svg">
<path d="M19.409 5.44445e-05C14.2531 0.0247327 9.31651 2.14276 5.67921 5.89082C2.04191 9.63887 -5.61422e-05 14.7119 1.15771e-09 20.0001C1.15772e-09 25.3044 2.05446 30.3915 5.71142 34.1422C9.36838 37.8929 14.3283 40.0001 19.5 40.0001C24.6717 40.0001 29.6316 37.8929 33.2886 34.1422C36.9455 30.3915 39 25.3044 39 20.0001C39 14.6957 36.9455 9.60865 33.2886 5.85792C29.6316 2.10719 24.6717 5.44445e-05 19.5 5.44445e-05C19.4697 -1.81482e-05 19.4393 -1.81482e-05 19.409 5.44445e-05ZM27.4722 12.0401C27.6348 12.0367 27.9939 12.0784 28.2279 12.2734C28.3834 12.4119 28.4825 12.6052 28.5057 12.8151C28.5317 12.9701 28.5643 13.3251 28.5382 13.6017C28.2458 16.7651 26.975 24.4384 26.3282 27.9801C26.0553 29.4801 25.5174 29.9817 24.9958 30.0301C23.8647 30.1384 23.0051 29.2634 21.9083 28.5267C20.1923 27.3717 19.2221 26.6534 17.5565 25.5267C15.6309 24.2267 16.8789 23.5101 17.9757 22.3434C18.2634 22.0367 23.2521 17.3817 23.3496 16.9601C23.361 16.9067 23.3724 16.7101 23.2586 16.6067C23.1449 16.5034 22.9759 16.5384 22.854 16.5667C22.6817 16.6067 19.9404 18.4667 14.6299 22.1417C13.8499 22.6917 13.1463 22.9584 12.5141 22.9417C11.8186 22.9284 10.4796 22.5401 9.4835 22.2084C8.2615 21.8001 7.29138 21.5851 7.37587 20.8934C7.41975 20.5334 7.904 20.1651 8.827 19.7884C14.5113 17.2484 18.3008 15.5734 20.1987 14.7651C25.6133 12.4551 26.7394 12.0534 27.4722 12.0401Z" fill="white"/>
</svg>
